<svg version="1.1" id="Layer_1" xmlns="http://www.w3.org/2000/svg" xmlns:xlink="http://www.w3.org/1999/xlink" x="0px" y="0px"
	 width="100%" viewBox="0 0 512 512" enable-background="new 0 0 512 512" xml:space="preserve">
<path fill="#000000" opacity="1.000000" stroke="none" 
	d="
M1.000000,411.000000 
	C1.000000,274.395782 1.000000,137.791580 1.000000,1.093683 
	C171.666641,1.093683 342.333313,1.093683 513.000000,1.093683 
	C513.000000,11.407049 513.000000,21.735672 512.738892,32.851524 
	C508.049530,26.740616 501.813995,24.796104 493.658081,24.838755 
	C435.750275,25.141571 377.840118,24.998320 319.930725,25.001812 
	C310.980530,25.002352 305.018311,31.058508 304.997955,40.112167 
	C304.949341,61.741096 304.890015,83.369995 304.378357,104.999374 
	C223.820755,104.999893 143.719025,105.162865 63.619568,104.810883 
	C52.578732,104.762360 40.776707,116.591148 40.814331,127.587852 
	C41.135128,221.343201 40.993092,315.100128 40.525253,408.918274 
	C27.057871,409.987854 13.840744,406.854889 1.000000,411.000000 
z"/>
<path fill="#2488FF" opacity="1.000000" stroke="none" 
	d="
M1.000000,411.468658 
	C13.840744,406.854889 27.057871,409.987854 40.990646,408.969543 
	C174.119949,408.971100 306.319458,408.983368 438.518982,408.989380 
	C439.349426,408.989410 440.179901,408.902710 441.474731,408.918274 
	C452.103912,408.986664 462.268677,408.984894 472.433472,409.003021 
	C479.103394,409.014893 480.989288,410.860809 480.995209,417.435669 
	C481.009857,433.766083 480.496185,450.117523 481.175995,466.419617 
	C481.634155,477.407074 469.472198,489.213654 458.202026,489.191132 
	C313.395081,488.901855 168.587341,488.978729 23.779846,489.049774 
	C14.532869,489.054291 8.428517,484.452484 3.617356,477.212189 
	C3.010199,476.298492 1.885132,475.728973 1.000004,475.000000 
	C1.000000,453.979095 1.000000,432.958221 1.000000,411.468658 
z"/>
<path fill="#FFC477" opacity="1.000000" stroke="none" 
	d="
M304.834991,104.998909 
	C304.890015,83.369995 304.949341,61.741096 304.997955,40.112167 
	C305.018311,31.058508 310.980530,25.002352 319.930725,25.001812 
	C377.840118,24.998320 435.750275,25.141571 493.658081,24.838755 
	C501.813995,24.796104 508.049530,26.740616 512.738892,33.319382 
	C513.000000,86.020897 513.000000,139.041794 512.738770,192.211884 
	C508.075317,199.237396 501.892090,201.392929 493.737701,201.166656 
	C476.172363,200.679245 458.581482,201.110016 440.536652,201.104370 
	C429.717468,201.083710 419.362732,201.123703 408.542358,201.105789 
	C397.602142,201.032013 387.121674,200.823227 376.657227,201.141586 
	C374.172516,201.217178 371.188232,202.474854 369.380371,204.187836 
	C360.934906,212.190170 352.790863,220.512619 344.604126,228.784973 
	C341.646942,231.773087 338.566864,234.182434 334.080750,232.362152 
	C329.636047,230.558670 328.822937,226.821014 328.975189,222.530746 
	C329.098907,219.043518 329.000061,215.548416 329.000000,212.056793 
	C328.999939,208.480087 329.000000,204.903381 329.000000,201.225830 
	C326.826660,201.123901 325.510468,201.021881 324.193298,201.006622 
	C310.526489,200.848358 305.024902,195.208481 304.994904,181.377563 
	C304.962830,166.582352 304.890869,151.787201 304.895752,136.527283 
	C304.915131,125.707993 304.875061,115.353447 304.834991,104.998909 
M436.682098,131.763809 
	C441.346802,135.256882 446.057831,138.690262 450.659485,142.264526 
	C453.607605,144.554443 456.637512,145.937454 460.319580,144.201797 
	C464.199951,142.372696 465.052643,139.036087 465.030151,135.084412 
	C464.953461,121.594887 465.030365,108.104568 464.985809,94.614761 
	C464.970184,89.879837 466.066254,84.656860 460.505951,81.883469 
	C454.918762,79.096672 451.466949,83.286491 447.646088,86.022949 
	C443.009552,89.343590 438.471863,92.802277 433.712799,96.333755 
	C429.181488,83.728882 425.303802,80.999847 412.789886,80.998817 
	C398.800293,80.997665 384.810699,80.977150 370.821136,81.005768 
	C359.284485,81.029373 353.026428,87.375465 353.002960,99.032692 
	C352.983856,108.525589 352.970825,118.018661 353.006989,127.511459 
	C353.048920,138.518814 359.417511,144.952377 370.373047,144.988602 
	C384.862122,145.036514 399.351440,145.004929 413.840668,145.000061 
	C424.662384,144.996429 428.659088,142.422531 432.629791,132.246582 
	C433.627106,129.690750 434.541626,130.108536 436.682098,131.763809 
z"/>
<path fill="#000000" opacity="1.000000" stroke="none" 
	d="
M441.001068,201.165024 
	C458.581482,201.110016 476.172363,200.679245 493.737701,201.166656 
	C501.892090,201.392929 508.075317,199.237396 512.738770,192.680542 
	C513.000000,299.613007 513.000000,406.225983 513.000000,512.919495 
	C342.333344,512.919495 171.666687,512.919495 1.000006,512.919189 
	C1.000000,500.591705 1.000000,488.264496 1.000004,475.468658 
	C1.885132,475.728973 3.010199,476.298492 3.617356,477.212189 
	C8.428517,484.452484 14.532869,489.054291 23.779846,489.049774 
	C168.587341,488.978729 313.395081,488.901855 458.202026,489.191132 
	C469.472198,489.213654 481.634155,477.407074 481.175995,466.419617 
	C480.496185,450.117523 481.009857,433.766083 480.995209,417.435669 
	C480.989288,410.860809 479.103394,409.014893 472.433472,409.003021 
	C462.268677,408.984894 452.103912,408.986664 441.470154,408.462280 
	C441.001160,339.018097 441.001099,270.091553 441.001068,201.165024 
z"/>
<path fill="#9BC9FF" opacity="1.000000" stroke="none" 
	d="
M440.536652,201.104370 
	C441.001099,270.091553 441.001160,339.018097 441.005768,408.400574 
	C440.179901,408.902710 439.349426,408.989410 438.518982,408.989380 
	C306.319458,408.983368 174.119949,408.971100 41.455044,408.907837 
	C40.993092,315.100128 41.135128,221.343201 40.814331,127.587852 
	C40.776707,116.591148 52.578732,104.762360 63.619568,104.810883 
	C143.719025,105.162865 223.820755,104.999893 304.378357,104.999374 
	C304.875061,115.353447 304.915131,125.707993 304.439453,136.529221 
	C287.266235,136.997467 270.607239,137.121201 253.952423,136.912216 
	C249.932312,136.861771 248.911697,138.167694 248.925064,142.035324 
	C249.051758,178.681335 249.052704,215.328156 248.923965,251.974152 
	C248.910324,255.858292 249.963577,257.092194 253.961014,257.082092 
	C303.933105,256.955902 353.905823,256.947510 403.877838,257.091400 
	C408.198303,257.103821 409.126099,255.626434 409.081116,251.634918 
	C408.891479,234.813034 409.005219,217.987747 409.007965,201.163696 
	C419.362732,201.123703 429.717468,201.083710 440.536652,201.104370 
M281.950317,392.962738 
	C308.294128,392.925812 334.637939,392.888885 361.917023,392.946411 
	C374.574310,392.963318 387.231903,393.038452 399.888763,392.971710 
	C405.920837,392.939941 408.955017,390.050415 408.965271,384.148346 
	C409.027283,348.507324 408.963013,312.866058 409.054291,277.225159 
	C409.062683,273.947052 407.975342,272.942749 404.739197,272.947754 
	C354.275482,273.025513 303.811554,273.023041 253.347824,272.951416 
	C250.212418,272.946960 248.934357,273.755981 248.942993,277.138153 
	C249.038239,314.444519 249.030838,351.751251 248.952744,389.057709 
	C248.946274,392.153168 250.069763,393.098785 253.044769,393.043213 
	C262.367188,392.868958 271.693451,392.900238 281.950317,392.962738 
M201.917007,392.946411 
	C210.577225,392.964142 219.246292,392.756073 227.893967,393.094269 
	C232.259796,393.265015 233.090836,391.579346 233.076660,387.617676 
	C232.946304,351.143982 232.934174,314.669373 233.088745,278.195862 
	C233.106628,273.980255 231.800400,272.886108 227.710480,272.915070 
	C203.395615,273.087372 179.078888,273.000000 154.762787,273.000031 
	C129.114304,273.000092 103.465805,273.009155 77.817329,272.987244 
	C75.203812,272.985016 72.937279,272.765686 72.948059,276.668671 
	C73.047325,312.642883 72.971428,348.617584 73.050537,384.591888 
	C73.062263,389.925018 76.154533,392.920807 81.552040,392.951874 
	C94.706802,393.027588 107.862740,392.898499 121.950310,392.962738 
	C148.294128,392.925812 174.637955,392.888885 201.917007,392.946411 
M201.917526,256.946442 
	C210.744354,256.963959 219.573654,256.866669 228.396729,257.057739 
	C231.742996,257.130219 233.077942,256.239532 233.066971,252.616333 
	C232.954529,215.476273 232.964111,178.335632 233.055206,141.195435 
	C233.063339,137.882339 231.911301,136.943771 228.709381,136.948822 
	C179.744110,137.026245 130.778671,136.981689 81.813339,137.034470 
	C76.110367,137.040619 73.052040,140.023270 73.041252,145.644104 
	C72.972542,181.451996 73.033600,217.260132 72.952431,253.067963 
	C72.945381,256.175049 74.094490,257.072815 77.054779,257.042755 
	C91.708199,256.893829 106.363197,256.900299 121.949814,256.962982 
	C148.293991,256.925995 174.638168,256.888977 201.917526,256.946442 
z"/>
<path fill="#FFFFFF" opacity="1.000000" stroke="none" 
	d="
M408.542358,201.105789 
	C409.005219,217.987747 408.891479,234.813034 409.081116,251.634918 
	C409.126099,255.626434 408.198303,257.103821 403.877838,257.091400 
	C353.905823,256.947510 303.933105,256.955902 253.961014,257.082092 
	C249.963577,257.092194 248.910324,255.858292 248.923965,251.974152 
	C249.052704,215.328156 249.051758,178.681335 248.925064,142.035324 
	C248.911697,138.167694 249.932312,136.861771 253.952423,136.912216 
	C270.607239,137.121201 287.266235,136.997467 304.380005,136.993973 
	C304.890869,151.787201 304.962830,166.582352 304.994904,181.377563 
	C305.024902,195.208481 310.526489,200.848358 324.193298,201.006622 
	C325.510468,201.021881 326.826660,201.123901 329.000000,201.225830 
	C329.000000,204.903381 328.999939,208.480087 329.000000,212.056793 
	C329.000061,215.548416 329.098907,219.043518 328.975189,222.530746 
	C328.822937,226.821014 329.636047,230.558670 334.080750,232.362152 
	C338.566864,234.182434 341.646942,231.773087 344.604126,228.784973 
	C352.790863,220.512619 360.934906,212.190170 369.380371,204.187836 
	C371.188232,202.474854 374.172516,201.217178 376.657227,201.141586 
	C387.121674,200.823227 397.602142,201.032013 408.542358,201.105789 
z"/>
<path fill="#FF4062" opacity="1.000000" stroke="none" 
	d="
M436.391296,131.549026 
	C434.541626,130.108536 433.627106,129.690750 432.629791,132.246582 
	C428.659088,142.422531 424.662384,144.996429 413.840668,145.000061 
	C399.351440,145.004929 384.862122,145.036514 370.373047,144.988602 
	C359.417511,144.952377 353.048920,138.518814 353.006989,127.511459 
	C352.970825,118.018661 352.983856,108.525589 353.002960,99.032692 
	C353.026428,87.375465 359.284485,81.029373 370.821136,81.005768 
	C384.810699,80.977150 398.800293,80.997665 412.789886,80.998817 
	C425.303802,80.999847 429.181488,83.728882 433.712799,96.333755 
	C438.471863,92.802277 443.009552,89.343590 447.646088,86.022949 
	C451.466949,83.286491 454.918762,79.096672 460.505951,81.883469 
	C466.066254,84.656860 464.970184,89.879837 464.985809,94.614761 
	C465.030365,108.104568 464.953461,121.594887 465.030151,135.084412 
	C465.052643,139.036087 464.199951,142.372696 460.319580,144.201797 
	C456.637512,145.937454 453.607605,144.554443 450.659485,142.264526 
	C446.057831,138.690262 441.346802,135.256882 436.391296,131.549026 
z"/>
<path fill="#FFFFFF" opacity="1.000000" stroke="none" 
	d="
M121.017639,256.851959 
	C106.363197,256.900299 91.708199,256.893829 77.054779,257.042755 
	C74.094490,257.072815 72.945381,256.175049 72.952431,253.067963 
	C73.033600,217.260132 72.972542,181.451996 73.041252,145.644104 
	C73.052040,140.023270 76.110367,137.040619 81.813339,137.034470 
	C130.778671,136.981689 179.744110,137.026245 228.709381,136.948822 
	C231.911301,136.943771 233.063339,137.882339 233.055206,141.195435 
	C232.964111,178.335632 232.954529,215.476273 233.066971,252.616333 
	C233.077942,256.239532 231.742996,257.130219 228.396729,257.057739 
	C219.573654,256.866669 210.744354,256.963959 201.455460,256.446381 
	C202.095779,239.786728 197.294281,226.085449 184.057205,216.174316 
	C196.061920,196.133194 195.406021,180.513046 182.317093,169.085876 
	C170.270523,158.568726 153.212524,158.216354 140.597672,168.373123 
	C134.527191,173.260712 130.938477,179.753754 129.506622,187.377792 
	C127.452278,198.316406 131.264435,207.616516 138.359665,216.076157 
	C125.063423,226.739517 119.937508,240.517319 121.017639,256.851959 
z"/>
<path fill="#FFFFFF" opacity="1.000000" stroke="none" 
	d="
M121.018204,392.851898 
	C107.862740,392.898499 94.706802,393.027588 81.552040,392.951874 
	C76.154533,392.920807 73.062263,389.925018 73.050537,384.591888 
	C72.971428,348.617584 73.047325,312.642883 72.948059,276.668671 
	C72.937279,272.765686 75.203812,272.985016 77.817329,272.987244 
	C103.465805,273.009155 129.114304,273.000092 154.762787,273.000031 
	C179.078888,273.000000 203.395615,273.087372 227.710480,272.915070 
	C231.800400,272.886108 233.106628,273.980255 233.088745,278.195862 
	C232.934174,314.669373 232.946304,351.143982 233.076660,387.617676 
	C233.090836,391.579346 232.259796,393.265015 227.893967,393.094269 
	C219.246292,392.756073 210.577225,392.964142 201.454971,392.442932 
	C200.991165,384.113922 201.112534,376.285980 200.957779,368.463470 
	C200.744202,357.668121 196.769531,348.383026 189.153839,340.703308 
	C187.535294,339.071167 185.795334,337.559418 184.152161,336.030212 
	C195.932968,316.249115 195.265045,300.384888 182.311234,289.081757 
	C170.273468,278.577942 153.185455,278.229828 140.588715,288.380890 
	C134.520889,293.270630 130.932816,299.764313 129.505173,307.388336 
	C127.457260,318.324951 131.266037,327.626099 138.359573,336.072632 
	C127.878761,344.607788 121.799377,355.206970 121.117706,368.380707 
	C120.696671,376.517700 121.025833,384.693512 121.018204,392.851898 
z"/>
<path fill="#FFFFFF" opacity="1.000000" stroke="none" 
	d="
M281.018250,392.851929 
	C271.693451,392.900238 262.367188,392.868958 253.044769,393.043213 
	C250.069763,393.098785 248.946274,392.153168 248.952744,389.057709 
	C249.030838,351.751251 249.038239,314.444519 248.942993,277.138153 
	C248.934357,273.755981 250.212418,272.946960 253.347824,272.951416 
	C303.811554,273.023041 354.275482,273.025513 404.739197,272.947754 
	C407.975342,272.942749 409.062683,273.947052 409.054291,277.225159 
	C408.963013,312.866058 409.027283,348.507324 408.965271,384.148346 
	C408.955017,390.050415 405.920837,392.939941 399.888763,392.971710 
	C387.231903,393.038452 374.574310,392.963318 361.454956,392.442932 
	C360.991150,384.113953 361.112457,376.286011 360.957764,368.463531 
	C360.744232,357.668152 356.769531,348.383057 349.153900,340.703339 
	C347.535339,339.071167 345.795349,337.559448 344.152161,336.030243 
	C355.932831,316.248779 355.264923,300.384674 342.311249,289.081787 
	C330.273285,278.577911 313.185638,278.229797 300.588715,288.380890 
	C294.520874,293.270599 290.932831,299.764313 289.505249,307.388367 
	C287.457336,318.324921 291.265900,327.626160 298.359589,336.072632 
	C287.878754,344.607758 281.799377,355.206970 281.117706,368.380707 
	C280.696686,376.517700 281.025879,384.693542 281.018250,392.851929 
z"/>
<path fill="#FFC478" opacity="1.000000" stroke="none" 
	d="
M121.484253,392.907318 
	C121.025833,384.693512 120.696671,376.517700 121.117706,368.380707 
	C121.799377,355.206970 127.878761,344.607788 138.359573,336.072632 
	C131.266037,327.626099 127.457260,318.324951 129.505173,307.388336 
	C130.932816,299.764313 134.520889,293.270630 140.588715,288.380890 
	C153.185455,278.229828 170.273468,278.577942 182.311234,289.081757 
	C195.265045,300.384888 195.932968,316.249115 184.152161,336.030212 
	C185.795334,337.559418 187.535294,339.071167 189.153839,340.703308 
	C196.769531,348.383026 200.744202,357.668121 200.957779,368.463470 
	C201.112534,376.285980 200.991165,384.113922 200.987350,392.395691 
	C174.637955,392.888885 148.294128,392.925812 121.484253,392.907318 
z"/>
<path fill="#FFC478" opacity="1.000000" stroke="none" 
	d="
M281.484283,392.907349 
	C281.025879,384.693542 280.696686,376.517700 281.117706,368.380707 
	C281.799377,355.206970 287.878754,344.607758 298.359589,336.072632 
	C291.265900,327.626160 287.457336,318.324921 289.505249,307.388367 
	C290.932831,299.764313 294.520874,293.270599 300.588715,288.380890 
	C313.185638,278.229797 330.273285,278.577911 342.311249,289.081787 
	C355.264923,300.384674 355.932831,316.248779 344.152161,336.030243 
	C345.795349,337.559448 347.535339,339.071167 349.153900,340.703339 
	C356.769531,348.383057 360.744232,357.668152 360.957764,368.463531 
	C361.112457,376.286011 360.991150,384.113953 360.987335,392.395691 
	C334.637939,392.888885 308.294128,392.925812 281.484283,392.907349 
z"/>
<path fill="#FFC478" opacity="1.000000" stroke="none" 
	d="
M121.483727,256.907471 
	C119.937508,240.517319 125.063423,226.739517 138.359665,216.076157 
	C131.264435,207.616516 127.452278,198.316406 129.506622,187.377792 
	C130.938477,179.753754 134.527191,173.260712 140.597672,168.373123 
	C153.212524,158.216354 170.270523,158.568726 182.317093,169.085876 
	C195.406021,180.513046 196.061920,196.133194 184.057205,216.174316 
	C197.294281,226.085449 202.095779,239.786728 200.987869,256.399139 
	C174.638168,256.888977 148.293991,256.925995 121.483727,256.907471 
z"/>
</svg>