<?xml version="1.0" standalone="no"?>
<!DOCTYPE svg PUBLIC "-//W3C//DTD SVG 20010904//EN"
 "http://www.w3.org/TR/2001/REC-SVG-20010904/DTD/svg10.dtd">
<svg version="1.0" xmlns="http://www.w3.org/2000/svg"
 width="512.000000pt" height="512.000000pt" viewBox="0 0 512.000000 512.000000"
 preserveAspectRatio="xMidYMid meet">

<g transform="translate(0.000000,512.000000) scale(0.100000,-0.100000)"
fill="#000000" stroke="none">
<path d="M1385 5113 c-372 -33 -701 -188 -957 -451 -166 -171 -276 -352 -348
-572 -78 -237 -75 -177 -75 -1530 0 -1355 -3 -1293 76 -1533 143 -437 501
-799 932 -942 258 -86 274 -86 1617 -83 1294 4 1227 0 1461 78 221 73 401 183
571 348 259 252 411 568 448 931 14 140 14 2262 0 2402 -37 363 -189 679 -448
931 -170 165 -350 275 -571 348 -235 78 -163 74 -1486 76 -649 0 -1198 -1
-1220 -3z m1410 -1358 c118 -30 226 -134 260 -249 11 -35 15 -97 15 -208 0
-87 2 -158 5 -158 3 0 72 41 153 91 789 489 742 463 862 464 76 0 92 -3 152
-33 84 -41 143 -100 182 -182 l31 -65 3 -836 c2 -801 2 -838 -17 -898 -32
-104 -115 -191 -223 -234 -79 -31 -195 -29 -268 5 -30 14 -238 138 -462 276
-224 139 -410 252 -412 252 -2 0 -6 -80 -8 -177 -3 -168 -4 -181 -30 -235 -35
-75 -104 -142 -186 -181 l-67 -32 -915 0 c-853 0 -918 1 -960 18 -119 47 -217
153 -240 260 -8 37 -10 311 -8 957 l3 905 29 59 c49 101 148 180 253 205 21 5
432 9 913 10 754 1 884 -1 935 -14z"/>
</g>
</svg>
